<?xml version="1.0" standalone="no"?>
<!DOCTYPE svg PUBLIC "-//W3C//DTD SVG 20010904//EN"
 "http://www.w3.org/TR/2001/REC-SVG-20010904/DTD/svg10.dtd">
<svg version="1.0" xmlns="http://www.w3.org/2000/svg"
 width="226.000000pt" height="223.000000pt" viewBox="0 0 226.000000 223.000000"
 preserveAspectRatio="xMidYMid meet">

<g transform="translate(0.000000,223.000000) scale(0.100000,-0.100000)"
fill="#000000" stroke="none">
<path d="M990 2219 c-208 -25 -421 -118 -584 -254 -200 -166 -327 -378 -382
-635 -21 -101 -24 -314 -5 -405 20 -96 64 -224 74 -218 6 3 7 1 3 -5 -3 -6 4
-31 16 -56 l22 -46 12 27 c7 18 8 37 2 52 -5 13 -7 26 -4 28 2 3 7 -5 11 -17
6 -18 12 -21 37 -16 17 3 34 6 39 6 4 0 10 8 12 17 3 11 5 7 6 -9 0 -16 4 -28
9 -28 4 0 7 195 7 433 0 472 3 501 58 617 57 120 181 216 322 250 73 17 678
25 843 11 235 -19 362 -93 445 -256 56 -112 62 -172 61 -615 -1 -380 -2 -410
-22 -483 -61 -225 -193 -330 -462 -371 -14 -2 2 -5 35 -6 33 -1 50 -5 38 -7
-28 -5 -29 -15 -3 -38 14 -13 19 -27 16 -51 -4 -32 -4 -32 27 -23 18 5 33 9
35 9 2 0 0 5 -4 12 -4 7 -3 8 4 4 16 -9 54 12 148 82 201 149 340 348 408 585
179 618 -217 1259 -859 1392 -93 19 -270 26 -365 14z m-850 -1565 c0 -14 -4
-23 -9 -20 -5 3 -7 15 -4 26 7 28 13 25 13 -6z m1485 -514 c3 -5 2 -10 -4 -10
-5 0 -13 5 -16 10 -3 6 -2 10 4 10 5 0 13 -4 16 -10z"/>
<path d="M748 1810 c-103 -10 -168 -36 -225 -92 -60 -59 -82 -118 -95 -256
-13 -142 -5 -723 11 -767 11 -29 11 -29 5 8 -5 41 7 49 22 15 6 -13 9 -17 7
-10 -2 9 17 12 70 11 122 -1 248 -15 257 -28 4 -7 29 -14 56 -16 45 -3 116
-23 87 -24 -27 -2 -11 -16 18 -17 17 -1 35 -7 39 -14 9 -14 23 -19 83 -27 20
-3 37 -10 37 -16 0 -6 3 -8 6 -4 3 3 16 -4 28 -16 11 -12 35 -29 51 -37 47
-23 85 -52 79 -62 -3 -4 6 -8 19 -8 14 0 30 -6 36 -14 10 -12 8 -15 -11 -20
-13 -2 40 -3 118 -2 134 3 143 5 206 35 75 35 110 71 146 150 36 78 49 345 35
701 -13 312 -19 337 -98 417 -41 41 -66 56 -121 74 -65 21 -88 22 -424 25
-195 1 -394 -1 -442 -6z m893 -146 c37 -19 63 -74 54 -115 -15 -65 -108 -101
-164 -63 -63 44 -58 143 9 176 43 22 62 22 101 2z m-374 -129 c120 -36 230
-142 278 -270 31 -80 36 -212 11 -281 -64 -182 -202 -296 -386 -318 -234 -28
-458 156 -485 399 -25 220 135 438 356 485 56 11 159 5 226 -15z m-277 -885
c8 -5 11 -10 5 -10 -5 0 -17 5 -25 10 -8 5 -10 10 -5 10 6 0 17 -5 25 -10z
m397 -226 c-3 -3 -12 -4 -19 -1 -8 3 -5 6 6 6 11 1 17 -2 13 -5z"/>
<path d="M1070 1391 c-234 -50 -305 -359 -116 -502 57 -43 104 -59 178 -59
111 0 204 57 251 153 34 70 38 178 8 243 -55 120 -195 192 -321 165z"/>
<path d="M880 661 c0 -5 9 -11 21 -14 16 -4 18 -3 8 9 -13 16 -29 19 -29 5z"/>
</g>
</svg>
